<?xml version="1.0" encoding="utf-8"?>
<!-- Generator: Adobe Illustrator 27.5.0, SVG Export Plug-In . SVG Version: 6.00 Build 0)  -->
<svg version="1.1" id="Capa_1" xmlns="http://www.w3.org/2000/svg" xmlns:xlink="http://www.w3.org/1999/xlink" x="0px" y="0px"
	 viewBox="0 0 2000 2000" style="enable-background:new 0 0 2000 2000;" xml:space="preserve">
<g>
	<path style="fill-rule:evenodd;clip-rule:evenodd;fill:#C9FAFC;" d="M999.097,353.717c433.513,0,784.943,351.43,784.943,784.943
		c0,189.07-66.86,362.515-178.208,498.012H392.362c-111.348-135.498-178.208-308.942-178.208-498.012
		C214.154,705.147,565.584,353.717,999.097,353.717L999.097,353.717z"/>
	<path style="fill-rule:evenodd;clip-rule:evenodd;fill:#598545;" d="M283.293,975.486c-49.852,0-90.265,40.413-90.265,90.263
		c0,20.503,6.841,39.405,18.358,54.561c-28.182,15.272-47.323,45.108-47.323,79.413c0,42.822,29.817,78.678,69.823,87.94
		c10.565,51.232,55.929,89.752,110.29,89.752c62.192,0,112.612-50.419,112.612-112.612c0-14.339-2.687-28.048-7.573-40.663
		c14.516-18.961,23.15-42.666,23.15-68.389c0-33.169-14.345-62.982-37.163-83.588c8.167-12.04,12.938-26.571,12.938-42.215
		c0-41.585-33.713-75.299-75.299-75.299c-23.057,0-43.69,10.368-57.502,26.691C305.382,977.558,294.58,975.486,283.293,975.486
		L283.293,975.486z"/>
	<polygon style="fill-rule:evenodd;clip-rule:evenodd;fill:#594038;" points="325.94,1263.31 309.968,1263.31 297.703,1636.754 
		338.206,1636.754 325.94,1263.31 	"/>
	<polygon style="fill-rule:evenodd;clip-rule:evenodd;fill:#594038;" points="323.653,1283.252 314.056,1266.743 362.166,1184.724 
		373.621,1097.667 372.705,1187.473 323.653,1283.252 	"/>
	<polygon style="fill-rule:evenodd;clip-rule:evenodd;fill:#594038;" points="311.763,1276.822 323.05,1264.944 282.439,1237.876 
		256.321,1161.357 274.191,1245.665 311.763,1276.822 	"/>
	<polygon style="fill-rule:evenodd;clip-rule:evenodd;fill:#594038;" points="323.509,1327.225 320.012,1311.681 360.622,1284.613 
		395.905,1229.173 368.87,1292.402 323.509,1327.225 	"/>
	<polygon style="fill-rule:evenodd;clip-rule:evenodd;fill:#B0B0B0;" points="291.246,1558.666 1672.518,1558.666 
		1672.518,1625.532 291.246,1625.532 291.246,1558.666 	"/>
	<polygon style="fill-rule:evenodd;clip-rule:evenodd;fill:#BDBDBD;" points="845.613,1558.666 1118.151,1558.666 
		1153.342,1625.532 810.422,1625.532 845.613,1558.666 	"/>
	<polygon style="fill-rule:evenodd;clip-rule:evenodd;fill:#E0DBD6;" points="806.761,1591.112 1150.869,1591.112 
		1150.869,1613.564 806.761,1613.564 806.761,1591.112 	"/>
	<polygon style="fill-rule:evenodd;clip-rule:evenodd;fill:#E0DBD6;" points="841.586,1545.75 1117.877,1545.75 1117.877,1568.203 
		841.586,1568.203 841.586,1545.75 	"/>
	<polygon style="fill-rule:evenodd;clip-rule:evenodd;fill:#E0D6C7;" points="369.035,1168.481 1592.425,1168.481 
		1592.425,1537.554 369.035,1537.554 369.035,1168.481 	"/>
	<polygon style="fill-rule:evenodd;clip-rule:evenodd;fill:#CCC2B8;" points="370.188,1160.466 1593.578,1160.466 
		1593.578,1323.961 370.188,1323.961 370.188,1160.466 	"/>
	<polygon style="fill-rule:evenodd;clip-rule:evenodd;fill:#EDE3D9;" points="372.983,1391.059 1590.783,1391.059 
		1590.783,1413.052 372.983,1413.052 372.983,1391.059 	"/>
	<polygon style="fill-rule:evenodd;clip-rule:evenodd;fill:#A34D4D;" points="395.822,1078.708 291.412,1147.37 1672.352,1147.37 
		1567.943,1078.708 395.822,1078.708 	"/>
	<polygon style="fill-rule:evenodd;clip-rule:evenodd;fill:#C24A4A;" points="395.822,1078.708 291.412,1147.37 946.633,1147.37 
		877.972,1078.708 395.822,1078.708 	"/>
	<polygon style="fill-rule:evenodd;clip-rule:evenodd;fill:#872929;" points="366.663,1097.883 1597.101,1097.883 
		1568.173,1068.627 393.989,1073.255 366.663,1097.883 	"/>
	<polygon style="fill-rule:evenodd;clip-rule:evenodd;fill:#E0D6C7;" points="399.5,851.405 1564.264,851.405 1564.264,1078.708 
		399.5,1078.708 399.5,851.405 	"/>
	<polygon style="fill-rule:evenodd;clip-rule:evenodd;fill:#CCC2B8;" points="399.5,851.405 1564.264,851.405 1564.264,884.021 
		399.5,884.021 399.5,851.405 	"/>
	<polygon style="fill-rule:evenodd;clip-rule:evenodd;fill:#D9D4CC;" points="1188.643,821.048 1188.643,772.48 981.313,648.765 
		775.123,772.48 775.123,821.048 981.313,697.333 1188.643,821.048 	"/>
	<polygon style="fill-rule:evenodd;clip-rule:evenodd;fill:#EBE3D6;" points="775.123,1092.532 1188.643,1092.532 1188.643,816.006 
		981.313,692.291 775.123,816.006 775.123,1092.532 	"/>
	<polygon style="fill-rule:evenodd;clip-rule:evenodd;fill:#C24A4A;" points="445.753,784.327 761.574,784.327 762.033,840.85 
		358.235,840.85 445.753,784.327 	"/>
	<polygon style="fill-rule:evenodd;clip-rule:evenodd;fill:#C24A4A;" points="1518.014,784.327 1202.192,784.327 1201.733,840.85 
		1605.532,840.85 1518.014,784.327 	"/>
	<polygon style="fill-rule:evenodd;clip-rule:evenodd;fill:#A34D4D;" points="1343.555,784.327 1202.192,784.327 1201.733,840.85 
		1400.078,840.85 1343.555,784.327 	"/>
	<polygon style="fill-rule:evenodd;clip-rule:evenodd;fill:#8FB5BD;" points="500.948,1242.02 601.751,1242.02 601.751,1416.135 
		500.948,1416.135 500.948,1242.02 	"/>
	<polygon style="fill-rule:evenodd;clip-rule:evenodd;fill:#A6D1D9;" points="601.938,1242.02 702.742,1242.02 702.742,1416.135 
		601.938,1416.135 601.938,1242.02 	"/>
	<polygon style="fill-rule:evenodd;clip-rule:evenodd;fill:#D4E8EB;" points="566.321,1242.02 601.751,1277.45 601.751,1318.274 
		525.497,1242.02 566.321,1242.02 	"/>
	<polygon style="fill-rule:evenodd;clip-rule:evenodd;fill:#D9F2F5;" points="668.603,1242.02 704.033,1277.45 704.033,1318.274 
		627.778,1242.02 668.603,1242.02 	"/>
	<polygon style="fill-rule:evenodd;clip-rule:evenodd;fill:#FFFFFF;" points="494.3,1293.458 494.3,1290.251 712.86,1290.251 
		712.86,1293.458 494.3,1293.458 	"/>
	<polygon style="fill-rule:evenodd;clip-rule:evenodd;fill:#FFFFFF;" points="494.3,1368.306 494.3,1365.099 712.86,1365.099 
		712.86,1368.306 494.3,1368.306 	"/>
	<polygon style="fill-rule:evenodd;clip-rule:evenodd;fill:#FFFFFF;" points="494.3,1328.649 494.3,1325.442 712.86,1325.442 
		712.86,1328.649 494.3,1328.649 	"/>
	<polygon style="fill-rule:evenodd;clip-rule:evenodd;fill:#FFFFFF;" points="531.831,1244.204 535.037,1244.204 535.037,1413.738 
		531.831,1413.738 531.831,1244.204 	"/>
	<polygon style="fill-rule:evenodd;clip-rule:evenodd;fill:#FFFFFF;" points="635.02,1245.58 638.227,1245.58 638.227,1415.113 
		635.02,1415.113 635.02,1245.58 	"/>
	<polygon style="fill-rule:evenodd;clip-rule:evenodd;fill:#FFFFFF;" points="567.022,1244.204 570.228,1244.204 570.228,1413.738 
		567.022,1413.738 567.022,1244.204 	"/>
	<polygon style="fill-rule:evenodd;clip-rule:evenodd;fill:#FFFFFF;" points="670.211,1245.58 673.418,1245.58 673.418,1415.113 
		670.211,1415.113 670.211,1245.58 	"/>
	<path style="fill-rule:evenodd;clip-rule:evenodd;fill:#E8E8E8;" d="M489.58,1231.147c87.535,0,144.029,0,227.997,0v197.025H489.58
		V1231.147L489.58,1231.147z M608.62,1248.74v161.838h91.365V1248.74H608.62L608.62,1248.74z M598.539,1410.579V1248.74h-91.365
		v161.838H598.539L598.539,1410.579z"/>
	<path style="fill-rule:evenodd;clip-rule:evenodd;fill:#D9D1D1;" d="M717.578,1323.996h-17.594v-75.255H608.62v75.255h-10.081
		v-75.255h-91.365v75.255H489.58v-92.848c87.535,0,144.029,0,227.997,0V1323.996L717.578,1323.996z"/>
	<polygon style="fill-rule:evenodd;clip-rule:evenodd;fill:#8FB5BD;" points="1257.554,1242.02 1358.357,1242.02 1358.357,1416.135 
		1257.554,1416.135 1257.554,1242.02 	"/>
	<polygon style="fill-rule:evenodd;clip-rule:evenodd;fill:#A6D1D9;" points="1358.544,1242.02 1459.348,1242.02 1459.348,1416.135 
		1358.544,1416.135 1358.544,1242.02 	"/>
	<polygon style="fill-rule:evenodd;clip-rule:evenodd;fill:#D4E8EB;" points="1322.927,1242.02 1358.357,1277.45 1358.357,1318.274 
		1282.103,1242.02 1322.927,1242.02 	"/>
	<polygon style="fill-rule:evenodd;clip-rule:evenodd;fill:#D9F2F5;" points="1425.209,1242.02 1460.638,1277.45 1460.638,1318.274 
		1384.384,1242.02 1425.209,1242.02 	"/>
	<polygon style="fill-rule:evenodd;clip-rule:evenodd;fill:#FFFFFF;" points="1250.906,1293.458 1250.906,1290.251 
		1469.466,1290.251 1469.466,1293.458 1250.906,1293.458 	"/>
	<polygon style="fill-rule:evenodd;clip-rule:evenodd;fill:#FFFFFF;" points="1250.906,1368.306 1250.906,1365.099 
		1469.466,1365.099 1469.466,1368.306 1250.906,1368.306 	"/>
	<polygon style="fill-rule:evenodd;clip-rule:evenodd;fill:#FFFFFF;" points="1250.906,1328.649 1250.906,1325.442 
		1469.466,1325.442 1469.466,1328.649 1250.906,1328.649 	"/>
	<polygon style="fill-rule:evenodd;clip-rule:evenodd;fill:#FFFFFF;" points="1288.437,1244.204 1291.643,1244.204 
		1291.643,1413.738 1288.437,1413.738 1288.437,1244.204 	"/>
	<polygon style="fill-rule:evenodd;clip-rule:evenodd;fill:#FFFFFF;" points="1391.626,1245.58 1394.833,1245.58 1394.833,1415.113 
		1391.626,1415.113 1391.626,1245.58 	"/>
	<polygon style="fill-rule:evenodd;clip-rule:evenodd;fill:#FFFFFF;" points="1323.628,1244.204 1326.834,1244.204 
		1326.834,1413.738 1323.628,1413.738 1323.628,1244.204 	"/>
	<polygon style="fill-rule:evenodd;clip-rule:evenodd;fill:#FFFFFF;" points="1426.817,1245.58 1430.024,1245.58 1430.024,1415.113 
		1426.817,1415.113 1426.817,1245.58 	"/>
	<path style="fill-rule:evenodd;clip-rule:evenodd;fill:#E8E8E8;" d="M1246.186,1231.147c87.535,0,144.029,0,227.997,0v197.025
		h-227.997V1231.147L1246.186,1231.147z M1365.226,1248.74v161.838h91.365V1248.74H1365.226L1365.226,1248.74z M1355.145,1410.579
		V1248.74h-91.365v161.838H1355.145L1355.145,1410.579z"/>
	<path style="fill-rule:evenodd;clip-rule:evenodd;fill:#D9D1D1;" d="M1474.184,1323.996h-17.593v-75.255h-91.365v75.255h-10.081
		v-75.255h-91.365v75.255h-17.593v-92.848c87.535,0,144.029,0,227.997,0V1323.996L1474.184,1323.996z"/>
	<polygon style="fill-rule:evenodd;clip-rule:evenodd;fill:#8FB5BD;" points="866.544,842.211 980.82,842.211 980.82,1016.327 
		866.544,1016.327 866.544,842.211 	"/>
	<polygon style="fill-rule:evenodd;clip-rule:evenodd;fill:#D4E8EB;" points="945.39,842.211 980.82,877.641 980.82,918.466 
		904.565,842.211 945.39,842.211 	"/>
	<polygon style="fill-rule:evenodd;clip-rule:evenodd;fill:#A6D1D9;" points="986.227,842.211 1094.363,842.211 1094.363,1016.327 
		986.227,1016.327 986.227,842.211 	"/>
	<polygon style="fill-rule:evenodd;clip-rule:evenodd;fill:#D9F2F5;" points="1060.223,842.211 1095.653,877.641 1095.653,918.466 
		1019.398,842.211 1060.223,842.211 	"/>
	<path style="fill-rule:evenodd;clip-rule:evenodd;fill:#75969E;" d="M985.413,771.599c35.829,0,64.873,29.044,64.873,64.873
		l-0.012,0.877H920.552l-0.012-0.877C920.54,800.643,949.584,771.599,985.413,771.599L985.413,771.599z"/>
	<path style="fill-rule:evenodd;clip-rule:evenodd;fill:#FFFFFF;" d="M978.644,775.13c1.636,0,3.273,0,4.909,0v51.847l36.629-36.878
		l3.417,3.394l-39.06,39.322c7.398,7.448-14.277,7.448-6.879,0l-39.06-39.322l3.416-3.394l36.629,36.878V775.13L978.644,775.13z"/>
	<polygon style="fill-rule:evenodd;clip-rule:evenodd;fill:#FFFFFF;" points="873.699,893.676 873.699,890.47 1092.26,890.47 
		1092.26,893.676 873.699,893.676 	"/>
	<polygon style="fill-rule:evenodd;clip-rule:evenodd;fill:#FFFFFF;" points="873.699,968.524 873.699,965.317 1092.26,965.317 
		1092.26,968.524 873.699,968.524 	"/>
	<polygon style="fill-rule:evenodd;clip-rule:evenodd;fill:#FFFFFF;" points="873.699,928.867 873.699,925.661 1092.26,925.661 
		1092.26,928.867 873.699,928.867 	"/>
	<polygon style="fill-rule:evenodd;clip-rule:evenodd;fill:#FFFFFF;" points="911.23,844.423 914.437,844.423 914.437,1013.956 
		911.23,1013.956 911.23,844.423 	"/>
	<polygon style="fill-rule:evenodd;clip-rule:evenodd;fill:#FFFFFF;" points="1014.419,845.798 1017.626,845.798 1017.626,1015.332 
		1014.419,1015.332 1014.419,845.798 	"/>
	<polygon style="fill-rule:evenodd;clip-rule:evenodd;fill:#FFFFFF;" points="946.421,844.423 949.628,844.423 949.628,1013.956 
		946.421,1013.956 946.421,844.423 	"/>
	<polygon style="fill-rule:evenodd;clip-rule:evenodd;fill:#FFFFFF;" points="1049.61,845.798 1052.817,845.798 1052.817,1015.332 
		1049.61,1015.332 1049.61,845.798 	"/>
	<path style="fill-rule:evenodd;clip-rule:evenodd;fill:#FFFFFF;" d="M859.227,829.766l46.673,0.112
		c5.634-37.35,37.868-65.982,76.789-65.982c38.921,0,71.155,28.632,76.789,65.982l45.343-0.112v197.025H859.227V829.766
		L859.227,829.766z M987.065,847.359v161.838h100.162V847.359H987.065L987.065,847.359z M976.984,1009.197V847.359H876.82v161.838
		H976.984L976.984,1009.197z M923.757,829.878h117.863c-5.438-27.583-29.755-48.389-58.931-48.389
		C953.511,781.489,929.195,802.295,923.757,829.878L923.757,829.878z"/>
	<polygon style="fill-rule:evenodd;clip-rule:evenodd;fill:#8FB5BD;" points="484.761,879.464 572.236,879.464 572.236,1030.56 
		484.761,1030.56 484.761,879.464 	"/>
	<polygon style="fill-rule:evenodd;clip-rule:evenodd;fill:#A6D1D9;" points="572.398,879.464 659.875,879.464 659.875,1030.56 
		572.398,1030.56 572.398,879.464 	"/>
	<polygon style="fill-rule:evenodd;clip-rule:evenodd;fill:#D4E8EB;" points="541.49,879.464 572.236,910.21 572.236,945.638 
		506.064,879.464 541.49,879.464 	"/>
	<polygon style="fill-rule:evenodd;clip-rule:evenodd;fill:#D9F2F5;" points="630.249,879.464 660.995,910.21 660.995,945.638 
		594.821,879.464 630.249,879.464 	"/>
	<polygon style="fill-rule:evenodd;clip-rule:evenodd;fill:#FFFFFF;" points="478.992,924.102 478.992,921.319 668.655,921.319 
		668.655,924.102 478.992,924.102 	"/>
	<polygon style="fill-rule:evenodd;clip-rule:evenodd;fill:#FFFFFF;" points="478.992,989.054 478.992,986.271 668.655,986.271 
		668.655,989.054 478.992,989.054 	"/>
	<polygon style="fill-rule:evenodd;clip-rule:evenodd;fill:#FFFFFF;" points="478.992,954.64 478.992,951.858 668.655,951.858 
		668.655,954.64 478.992,954.64 	"/>
	<polygon style="fill-rule:evenodd;clip-rule:evenodd;fill:#FFFFFF;" points="511.561,881.361 514.343,881.361 514.343,1028.478 
		511.561,1028.478 511.561,881.361 	"/>
	<polygon style="fill-rule:evenodd;clip-rule:evenodd;fill:#FFFFFF;" points="601.107,882.554 603.89,882.554 603.89,1029.673 
		601.107,1029.673 601.107,882.554 	"/>
	<polygon style="fill-rule:evenodd;clip-rule:evenodd;fill:#FFFFFF;" points="542.099,881.361 544.881,881.361 544.881,1028.478 
		542.099,1028.478 542.099,881.361 	"/>
	<polygon style="fill-rule:evenodd;clip-rule:evenodd;fill:#FFFFFF;" points="631.645,882.554 634.428,882.554 634.428,1029.673 
		631.645,1029.673 631.645,882.554 	"/>
	<path style="fill-rule:evenodd;clip-rule:evenodd;fill:#FFFFFF;" d="M474.896,870.029c75.962,0,124.985,0,197.852,0v170.976
		H474.896V870.029L474.896,870.029z M578.196,885.297v140.44h79.285v-140.44H578.196L578.196,885.297z M569.449,1025.737v-140.44
		h-79.285v140.44H569.449L569.449,1025.737z"/>
	<path style="fill-rule:evenodd;clip-rule:evenodd;fill:#EBEDED;" d="M672.748,950.602H657.48v-65.305h-79.285v65.305h-8.747
		v-65.305h-79.285v65.305h-15.268v-80.573c75.962,0,124.985,0,197.852,0V950.602L672.748,950.602z"/>
	<path style="fill-rule:evenodd;clip-rule:evenodd;fill:#DEE0E0;" d="M474.896,884.021v-13.992c75.962,0,124.985,0,197.852,0v13.992
		H474.896L474.896,884.021z"/>
	<polygon style="fill-rule:evenodd;clip-rule:evenodd;fill:#8FB5BD;" points="1300.881,879.464 1388.355,879.464 1388.355,1030.56 
		1300.881,1030.56 1300.881,879.464 	"/>
	<polygon style="fill-rule:evenodd;clip-rule:evenodd;fill:#A6D1D9;" points="1388.517,879.464 1475.994,879.464 1475.994,1030.56 
		1388.517,1030.56 1388.517,879.464 	"/>
	<polygon style="fill-rule:evenodd;clip-rule:evenodd;fill:#D4E8EB;" points="1357.609,879.464 1388.355,910.21 1388.355,945.638 
		1322.183,879.464 1357.609,879.464 	"/>
	<polygon style="fill-rule:evenodd;clip-rule:evenodd;fill:#D9F2F5;" points="1446.368,879.464 1477.114,910.21 1477.114,945.638 
		1410.94,879.464 1446.368,879.464 	"/>
	<polygon style="fill-rule:evenodd;clip-rule:evenodd;fill:#FFFFFF;" points="1295.112,924.102 1295.112,921.319 1484.774,921.319 
		1484.774,924.102 1295.112,924.102 	"/>
	<polygon style="fill-rule:evenodd;clip-rule:evenodd;fill:#FFFFFF;" points="1295.112,989.054 1295.112,986.271 1484.774,986.271 
		1484.774,989.054 1295.112,989.054 	"/>
	<polygon style="fill-rule:evenodd;clip-rule:evenodd;fill:#FFFFFF;" points="1295.112,954.64 1295.112,951.858 1484.774,951.858 
		1484.774,954.64 1295.112,954.64 	"/>
	<polygon style="fill-rule:evenodd;clip-rule:evenodd;fill:#FFFFFF;" points="1327.68,881.361 1330.463,881.361 1330.463,1028.478 
		1327.68,1028.478 1327.68,881.361 	"/>
	<polygon style="fill-rule:evenodd;clip-rule:evenodd;fill:#FFFFFF;" points="1417.227,882.554 1420.009,882.554 1420.009,1029.673 
		1417.227,1029.673 1417.227,882.554 	"/>
	<polygon style="fill-rule:evenodd;clip-rule:evenodd;fill:#FFFFFF;" points="1358.218,881.361 1361.001,881.361 1361.001,1028.478 
		1358.218,1028.478 1358.218,881.361 	"/>
	<polygon style="fill-rule:evenodd;clip-rule:evenodd;fill:#FFFFFF;" points="1447.765,882.554 1450.547,882.554 1450.547,1029.673 
		1447.765,1029.673 1447.765,882.554 	"/>
	<path style="fill-rule:evenodd;clip-rule:evenodd;fill:#FFFFFF;" d="M1291.016,870.029c75.962,0,124.985,0,197.852,0v170.976
		h-197.852V870.029L1291.016,870.029z M1394.315,885.297v140.44h79.285v-140.44H1394.315L1394.315,885.297z M1385.568,1025.737
		v-140.44h-79.285v140.44H1385.568L1385.568,1025.737z"/>
	<path style="fill-rule:evenodd;clip-rule:evenodd;fill:#EBEDED;" d="M1488.868,950.602H1473.6v-65.305h-79.285v65.305h-8.747
		v-65.305h-79.285v65.305h-15.268v-80.573c75.962,0,124.985,0,197.852,0V950.602L1488.868,950.602z"/>
	<path style="fill-rule:evenodd;clip-rule:evenodd;fill:#DEE0E0;" d="M1291.016,884.021v-13.992c75.962,0,124.985,0,197.852,0
		v13.992H1291.016L1291.016,884.021z"/>
	<polygon style="fill-rule:evenodd;clip-rule:evenodd;fill:#594038;" points="840.135,1183.089 1123.629,1183.089 
		1123.629,1544.589 840.135,1544.589 840.135,1183.089 	"/>
	<polygon style="fill-rule:evenodd;clip-rule:evenodd;fill:#E8E5E0;" points="847.172,1190.127 1116.592,1190.127 
		1116.592,1537.554 847.172,1537.554 847.172,1190.127 	"/>
	<polygon style="fill-rule:evenodd;clip-rule:evenodd;fill:#E0DBD6;" points="847.172,1190.127 1116.592,1190.127 
		1116.592,1323.961 847.172,1323.961 847.172,1190.127 	"/>
	<polygon style="fill-rule:evenodd;clip-rule:evenodd;fill:#594038;" points="867.839,1227.076 1095.926,1227.076 
		1095.926,1544.589 867.839,1544.589 867.839,1227.076 	"/>
	<polygon style="fill-rule:evenodd;clip-rule:evenodd;fill:#C4CCCC;" points="874.875,1234.113 1088.889,1234.113 
		1088.889,1537.554 874.875,1537.554 874.875,1234.113 	"/>
	<polygon style="fill-rule:evenodd;clip-rule:evenodd;fill:#594038;" points="915.033,1248.608 1048.731,1248.608 
		1048.731,1544.589 915.033,1544.589 915.033,1248.608 	"/>
	<polygon style="fill-rule:evenodd;clip-rule:evenodd;fill:#E8E5E0;" points="922.069,1255.646 1041.695,1255.646 
		1041.695,1537.554 922.069,1537.554 922.069,1255.646 	"/>
	<polygon style="fill-rule:evenodd;clip-rule:evenodd;fill:#A3C4C7;" points="889.299,1253.356 907.169,1253.356 907.169,1272.6 
		889.299,1272.6 889.299,1253.356 	"/>
	<polygon style="fill-rule:evenodd;clip-rule:evenodd;fill:#A3C4C7;" points="889.299,1298.661 907.169,1298.661 907.169,1317.905 
		889.299,1317.905 889.299,1298.661 	"/>
	<polygon style="fill-rule:evenodd;clip-rule:evenodd;fill:#A3C4C7;" points="889.299,1343.967 907.169,1343.967 907.169,1363.21 
		889.299,1363.21 889.299,1343.967 	"/>
	<polygon style="fill-rule:evenodd;clip-rule:evenodd;fill:#8AA8A8;" points="889.299,1276.01 907.169,1276.01 907.169,1295.253 
		889.299,1295.253 889.299,1276.01 	"/>
	<polygon style="fill-rule:evenodd;clip-rule:evenodd;fill:#8AA8A8;" points="889.299,1321.315 907.169,1321.315 907.169,1340.558 
		889.299,1340.558 889.299,1321.315 	"/>
	<polygon style="fill-rule:evenodd;clip-rule:evenodd;fill:#8AA8A8;" points="889.299,1366.618 907.169,1366.618 907.169,1385.861 
		889.299,1385.861 889.299,1366.618 	"/>
	<polygon style="fill-rule:evenodd;clip-rule:evenodd;fill:#A3C4C7;" points="1056.595,1253.356 1074.465,1253.356 1074.465,1272.6 
		1056.595,1272.6 1056.595,1253.356 	"/>
	<polygon style="fill-rule:evenodd;clip-rule:evenodd;fill:#A3C4C7;" points="1056.595,1298.661 1074.465,1298.661 
		1074.465,1317.905 1056.595,1317.905 1056.595,1298.661 	"/>
	<polygon style="fill-rule:evenodd;clip-rule:evenodd;fill:#A3C4C7;" points="1056.595,1343.967 1074.465,1343.967 
		1074.465,1363.21 1056.595,1363.21 1056.595,1343.967 	"/>
	<polygon style="fill-rule:evenodd;clip-rule:evenodd;fill:#8AA8A8;" points="1056.595,1276.01 1074.465,1276.01 1074.465,1295.253 
		1056.595,1295.253 1056.595,1276.01 	"/>
	<polygon style="fill-rule:evenodd;clip-rule:evenodd;fill:#8AA8A8;" points="1056.595,1321.315 1074.465,1321.315 
		1074.465,1340.558 1056.595,1340.558 1056.595,1321.315 	"/>
	<polygon style="fill-rule:evenodd;clip-rule:evenodd;fill:#8AA8A8;" points="1056.595,1366.618 1074.465,1366.618 
		1074.465,1385.861 1056.595,1385.861 1056.595,1366.618 	"/>
	<path style="fill-rule:evenodd;clip-rule:evenodd;fill:#DED9D6;" d="M982.543,1263.028c21.826,0,40.648,15.447,44.881,36.829
		l1.662,8.402h-93.087l1.662-8.402C941.895,1278.474,960.716,1263.028,982.543,1263.028L982.543,1263.028z"/>
	<path style="fill-rule:evenodd;clip-rule:evenodd;fill:#789C9C;" d="M982.543,1270.064c18.797,0,34.462,13.394,37.978,31.157
		h-75.955C948.081,1283.458,963.746,1270.064,982.543,1270.064L982.543,1270.064z"/>
	<path style="fill-rule:evenodd;clip-rule:evenodd;fill:#B0CCCC;" d="M982.543,1270.064c18.797,0,34.462,13.394,37.978,31.157
		h-15.048l-30.43-30.43C977.468,1270.316,979.977,1270.064,982.543,1270.064L982.543,1270.064z"/>
	<path style="fill-rule:evenodd;clip-rule:evenodd;fill:#DED9D6;" d="M935.798,1321.44h40.199v90.773h-40.199V1321.44
		L935.798,1321.44z M942.836,1328.476h26.126v76.699h-26.126V1328.476L942.836,1328.476z"/>
	<path style="fill-rule:evenodd;clip-rule:evenodd;fill:#DED9D6;" d="M935.798,1427.013h40.199v90.772h-40.199V1427.013
		L935.798,1427.013z M942.836,1434.049h26.126v76.7h-26.126V1434.049L942.836,1434.049z"/>
	<path style="fill-rule:evenodd;clip-rule:evenodd;fill:#DED9D6;" d="M987.769,1321.44h40.199v90.773h-40.199V1321.44
		L987.769,1321.44z M994.808,1328.476h26.126v76.699h-26.126V1328.476L994.808,1328.476z"/>
	<path style="fill-rule:evenodd;clip-rule:evenodd;fill:#DED9D6;" d="M987.769,1427.013h40.199v90.772h-40.199V1427.013
		L987.769,1427.013z M994.808,1434.049h26.126v76.7h-26.126V1434.049L994.808,1434.049z"/>
	<polygon style="fill-rule:evenodd;clip-rule:evenodd;fill:#D9D4CC;" points="808.818,804.508 894.958,804.508 894.958,809.09 
		808.818,809.09 808.818,804.508 	"/>
	<polygon style="fill-rule:evenodd;clip-rule:evenodd;fill:#D9D4CC;" points="1066.325,1049.187 1152.465,1049.187 
		1152.465,1053.769 1066.325,1053.769 1066.325,1049.187 	"/>
	<polygon style="fill-rule:evenodd;clip-rule:evenodd;fill:#D9D4CC;" points="1133.222,974.041 1176.293,974.041 1176.293,978.624 
		1133.222,978.624 1133.222,974.041 	"/>
	<polygon style="fill-rule:evenodd;clip-rule:evenodd;fill:#D9D4CC;" points="802.86,865.906 845.931,865.906 845.931,870.488 
		802.86,870.488 802.86,865.906 	"/>
	<polygon style="fill-rule:evenodd;clip-rule:evenodd;fill:#D9D4CC;" points="785.447,956.633 828.519,956.633 828.519,961.215 
		785.447,961.215 785.447,956.633 	"/>
	<polygon style="fill-rule:evenodd;clip-rule:evenodd;fill:#D6C7B5;" points="423.245,921.81 466.316,921.81 466.316,926.392 
		423.245,926.392 423.245,921.81 	"/>
	<polygon style="fill-rule:evenodd;clip-rule:evenodd;fill:#EDE3D6;" points="468.147,1462.815 533.213,1462.815 533.213,1467.397 
		468.147,1467.397 468.147,1462.815 	"/>
	<polygon style="fill-rule:evenodd;clip-rule:evenodd;fill:#EDE3D6;" points="634.933,1446.78 685.795,1446.78 685.795,1451.362 
		634.933,1451.362 634.933,1446.78 	"/>
	<polygon style="fill-rule:evenodd;clip-rule:evenodd;fill:#EDE3D6;" points="1245.484,1501.305 1296.346,1501.305 
		1296.346,1505.888 1245.484,1505.888 1245.484,1501.305 	"/>
	<polygon style="fill-rule:evenodd;clip-rule:evenodd;fill:#EDE3D6;" points="1386.609,1468.315 1498.182,1468.315 
		1498.182,1472.898 1386.609,1472.898 1386.609,1468.315 	"/>
	<polygon style="fill-rule:evenodd;clip-rule:evenodd;fill:#D6C7B5;" points="686.707,971.756 722.449,971.756 722.449,976.338 
		686.707,976.338 686.707,971.756 	"/>
	<polygon style="fill-rule:evenodd;clip-rule:evenodd;fill:#D6C7B5;" points="708.241,1008.283 743.642,1008.283 743.642,1012.865 
		708.241,1012.865 708.241,1008.283 	"/>
	<polygon style="fill-rule:evenodd;clip-rule:evenodd;fill:#D6C7B5;" points="1232.591,918.477 1267.992,918.477 1267.992,923.059 
		1232.591,923.059 1232.591,918.477 	"/>
	<polygon style="fill-rule:evenodd;clip-rule:evenodd;fill:#D6C7B5;" points="1493.766,967.961 1529.167,967.961 1529.167,972.543 
		1493.766,972.543 1493.766,967.961 	"/>
	<polygon style="fill-rule:evenodd;clip-rule:evenodd;fill:#D6C7B5;" points="1225.549,998.661 1284.486,998.661 1284.486,1003.243 
		1225.549,1003.243 1225.549,998.661 	"/>
	<polygon style="fill-rule:evenodd;clip-rule:evenodd;fill:#594038;" points="743.199,1453.029 743.199,1406.907 738.845,1406.907 
		738.845,1370.444 751.676,1370.444 751.676,1149.822 805.78,1149.822 805.78,1370.444 818.612,1370.444 818.612,1406.907 
		814.258,1406.907 814.258,1552.837 743.199,1552.837 743.199,1453.029 	"/>
	<polygon style="fill-rule:evenodd;clip-rule:evenodd;fill:#BFADA3;" points="753.756,1391.761 803.701,1391.761 803.701,1542.28 
		753.756,1542.28 753.756,1391.761 	"/>
	<polygon style="fill-rule:evenodd;clip-rule:evenodd;fill:#AB998C;" points="753.756,1391.761 803.701,1391.761 803.701,1404.13 
		753.756,1404.13 753.756,1391.761 	"/>
	<polygon style="fill-rule:evenodd;clip-rule:evenodd;fill:#FFFFFF;" points="762.232,1160.379 795.223,1160.379 795.223,1385.812 
		762.232,1385.812 762.232,1160.379 	"/>
	<polygon style="fill-rule:evenodd;clip-rule:evenodd;fill:#D9D9D9;" points="762.232,1160.379 795.223,1160.379 795.223,1323.961 
		762.232,1323.961 762.232,1160.379 	"/>
	<polygon style="fill-rule:evenodd;clip-rule:evenodd;fill:#D1B8A8;" points="749.402,1381.001 764.065,1381.001 764.065,1396.35 
		749.402,1396.35 749.402,1381.001 	"/>
	<polygon style="fill-rule:evenodd;clip-rule:evenodd;fill:#BA9E8F;" points="764.065,1381.001 778.729,1381.001 778.729,1396.35 
		764.065,1396.35 764.065,1381.001 	"/>
	<polygon style="fill-rule:evenodd;clip-rule:evenodd;fill:#D1B8A8;" points="778.729,1381.001 793.392,1381.001 793.392,1396.35 
		778.729,1396.35 778.729,1381.001 	"/>
	<polygon style="fill-rule:evenodd;clip-rule:evenodd;fill:#BA9E8F;" points="793.392,1381.001 808.055,1381.001 808.055,1396.35 
		793.392,1396.35 793.392,1381.001 	"/>
	<polygon style="fill-rule:evenodd;clip-rule:evenodd;fill:#B0A38F;" points="767.503,1472.715 803.701,1472.715 803.701,1490.584 
		767.503,1490.584 767.503,1472.715 	"/>
	<polygon style="fill-rule:evenodd;clip-rule:evenodd;fill:#C9BAA6;" points="781.806,1515.327 803.701,1515.327 803.701,1533.197 
		781.806,1533.197 781.806,1515.327 	"/>
	<polygon style="fill-rule:evenodd;clip-rule:evenodd;fill:#C9BAA6;" points="753.756,1424.602 778.141,1424.602 778.141,1442.472 
		753.756,1442.472 753.756,1424.602 	"/>
	<polygon style="fill-rule:evenodd;clip-rule:evenodd;fill:#594038;" points="804.714,1380.997 750.275,1380.997 750.275,1370.44 
		804.714,1370.44 804.714,1380.997 	"/>
	<polygon style="fill-rule:evenodd;clip-rule:evenodd;fill:#594038;" points="805.948,1406.911 751.509,1406.911 751.509,1396.354 
		805.948,1396.354 805.948,1406.911 	"/>
	<polygon style="fill-rule:evenodd;clip-rule:evenodd;fill:#594038;" points="1150.827,1453.029 1150.827,1406.907 
		1146.474,1406.907 1146.474,1370.444 1159.304,1370.444 1159.304,1149.822 1213.408,1149.822 1213.408,1370.444 1226.24,1370.444 
		1226.24,1406.907 1221.887,1406.907 1221.887,1552.837 1150.827,1552.837 1150.827,1453.029 	"/>
	<polygon style="fill-rule:evenodd;clip-rule:evenodd;fill:#BFADA3;" points="1161.384,1391.761 1211.33,1391.761 1211.33,1542.28 
		1161.384,1542.28 1161.384,1391.761 	"/>
	<polygon style="fill-rule:evenodd;clip-rule:evenodd;fill:#AB998C;" points="1161.384,1391.761 1211.33,1391.761 1211.33,1404.13 
		1161.384,1404.13 1161.384,1391.761 	"/>
	<polygon style="fill-rule:evenodd;clip-rule:evenodd;fill:#FFFFFF;" points="1169.861,1160.379 1202.851,1160.379 
		1202.851,1385.812 1169.861,1385.812 1169.861,1160.379 	"/>
	<polygon style="fill-rule:evenodd;clip-rule:evenodd;fill:#D9D9D9;" points="1169.861,1160.379 1202.851,1160.379 
		1202.851,1323.961 1169.861,1323.961 1169.861,1160.379 	"/>
	<polygon style="fill-rule:evenodd;clip-rule:evenodd;fill:#D1B8A8;" points="1157.031,1381.001 1171.694,1381.001 
		1171.694,1396.35 1157.031,1396.35 1157.031,1381.001 	"/>
	<polygon style="fill-rule:evenodd;clip-rule:evenodd;fill:#BA9E8F;" points="1171.694,1381.001 1186.357,1381.001 
		1186.357,1396.35 1171.694,1396.35 1171.694,1381.001 	"/>
	<polygon style="fill-rule:evenodd;clip-rule:evenodd;fill:#D1B8A8;" points="1186.357,1381.001 1201.021,1381.001 
		1201.021,1396.35 1186.357,1396.35 1186.357,1381.001 	"/>
	<polygon style="fill-rule:evenodd;clip-rule:evenodd;fill:#BA9E8F;" points="1201.021,1381.001 1215.684,1381.001 
		1215.684,1396.35 1201.021,1396.35 1201.021,1381.001 	"/>
	<polygon style="fill-rule:evenodd;clip-rule:evenodd;fill:#B0A38F;" points="1175.131,1472.715 1211.33,1472.715 1211.33,1490.584 
		1175.131,1490.584 1175.131,1472.715 	"/>
	<polygon style="fill-rule:evenodd;clip-rule:evenodd;fill:#C9BAA6;" points="1189.435,1515.327 1211.33,1515.327 1211.33,1533.197 
		1189.435,1533.197 1189.435,1515.327 	"/>
	<polygon style="fill-rule:evenodd;clip-rule:evenodd;fill:#C9BAA6;" points="1161.384,1424.602 1185.769,1424.602 
		1185.769,1442.472 1161.384,1442.472 1161.384,1424.602 	"/>
	<polygon style="fill-rule:evenodd;clip-rule:evenodd;fill:#594038;" points="1212.342,1380.997 1157.904,1380.997 
		1157.904,1370.44 1212.342,1370.44 1212.342,1380.997 	"/>
	<polygon style="fill-rule:evenodd;clip-rule:evenodd;fill:#594038;" points="1213.576,1406.911 1159.138,1406.911 
		1159.138,1396.354 1213.576,1396.354 1213.576,1406.911 	"/>
	<polygon style="fill-rule:evenodd;clip-rule:evenodd;fill:#594038;" points="1496.877,1453.029 1496.877,1406.907 
		1492.523,1406.907 1492.523,1370.444 1505.354,1370.444 1505.354,1149.822 1559.458,1149.822 1559.458,1370.444 1572.29,1370.444 
		1572.29,1406.907 1567.936,1406.907 1567.936,1552.837 1496.877,1552.837 1496.877,1453.029 	"/>
	<polygon style="fill-rule:evenodd;clip-rule:evenodd;fill:#BFADA3;" points="1507.434,1391.761 1557.38,1391.761 1557.38,1542.28 
		1507.434,1542.28 1507.434,1391.761 	"/>
	<polygon style="fill-rule:evenodd;clip-rule:evenodd;fill:#AB998C;" points="1507.434,1391.761 1557.38,1391.761 1557.38,1404.13 
		1507.434,1404.13 1507.434,1391.761 	"/>
	<polygon style="fill-rule:evenodd;clip-rule:evenodd;fill:#FFFFFF;" points="1515.911,1160.379 1548.901,1160.379 
		1548.901,1385.812 1515.911,1385.812 1515.911,1160.379 	"/>
	<polygon style="fill-rule:evenodd;clip-rule:evenodd;fill:#D9D9D9;" points="1515.911,1160.379 1548.901,1160.379 
		1548.901,1323.961 1515.911,1323.961 1515.911,1160.379 	"/>
	<polygon style="fill-rule:evenodd;clip-rule:evenodd;fill:#D1B8A8;" points="1503.08,1381.001 1517.744,1381.001 1517.744,1396.35 
		1503.08,1396.35 1503.08,1381.001 	"/>
	<polygon style="fill-rule:evenodd;clip-rule:evenodd;fill:#BA9E8F;" points="1517.744,1381.001 1532.407,1381.001 
		1532.407,1396.35 1517.744,1396.35 1517.744,1381.001 	"/>
	<polygon style="fill-rule:evenodd;clip-rule:evenodd;fill:#D1B8A8;" points="1532.407,1381.001 1547.07,1381.001 1547.07,1396.35 
		1532.407,1396.35 1532.407,1381.001 	"/>
	<polygon style="fill-rule:evenodd;clip-rule:evenodd;fill:#BA9E8F;" points="1547.07,1381.001 1561.733,1381.001 1561.733,1396.35 
		1547.07,1396.35 1547.07,1381.001 	"/>
	<polygon style="fill-rule:evenodd;clip-rule:evenodd;fill:#B0A38F;" points="1521.181,1472.715 1557.38,1472.715 1557.38,1490.584 
		1521.181,1490.584 1521.181,1472.715 	"/>
	<polygon style="fill-rule:evenodd;clip-rule:evenodd;fill:#C9BAA6;" points="1535.484,1515.327 1557.38,1515.327 1557.38,1533.197 
		1535.484,1533.197 1535.484,1515.327 	"/>
	<polygon style="fill-rule:evenodd;clip-rule:evenodd;fill:#C9BAA6;" points="1507.434,1424.602 1531.818,1424.602 
		1531.818,1442.472 1507.434,1442.472 1507.434,1424.602 	"/>
	<polygon style="fill-rule:evenodd;clip-rule:evenodd;fill:#594038;" points="1558.391,1380.997 1503.953,1380.997 
		1503.953,1370.44 1558.391,1370.44 1558.391,1380.997 	"/>
	<polygon style="fill-rule:evenodd;clip-rule:evenodd;fill:#594038;" points="1559.626,1406.911 1505.187,1406.911 
		1505.187,1396.354 1559.626,1396.354 1559.626,1406.911 	"/>
	<polygon style="fill-rule:evenodd;clip-rule:evenodd;fill:#594038;" points="395.832,1453.029 395.832,1406.907 391.478,1406.907 
		391.478,1370.444 404.309,1370.444 404.309,1149.822 458.413,1149.822 458.413,1370.444 471.245,1370.444 471.245,1406.907 
		466.891,1406.907 466.891,1552.837 395.832,1552.837 395.832,1453.029 	"/>
	<polygon style="fill-rule:evenodd;clip-rule:evenodd;fill:#BFADA3;" points="406.389,1391.761 456.335,1391.761 456.335,1542.28 
		406.389,1542.28 406.389,1391.761 	"/>
	<polygon style="fill-rule:evenodd;clip-rule:evenodd;fill:#AB998C;" points="406.389,1391.761 456.335,1391.761 456.335,1404.13 
		406.389,1404.13 406.389,1391.761 	"/>
	<polygon style="fill-rule:evenodd;clip-rule:evenodd;fill:#FFFFFF;" points="414.866,1160.379 447.856,1160.379 447.856,1385.812 
		414.866,1385.812 414.866,1160.379 	"/>
	<polygon style="fill-rule:evenodd;clip-rule:evenodd;fill:#D9D9D9;" points="414.866,1160.379 447.856,1160.379 447.856,1323.961 
		414.866,1323.961 414.866,1160.379 	"/>
	<polygon style="fill-rule:evenodd;clip-rule:evenodd;fill:#D1B8A8;" points="402.035,1381.001 416.698,1381.001 416.698,1396.35 
		402.035,1396.35 402.035,1381.001 	"/>
	<polygon style="fill-rule:evenodd;clip-rule:evenodd;fill:#BA9E8F;" points="416.698,1381.001 431.362,1381.001 431.362,1396.35 
		416.698,1396.35 416.698,1381.001 	"/>
	<polygon style="fill-rule:evenodd;clip-rule:evenodd;fill:#D1B8A8;" points="431.362,1381.001 446.025,1381.001 446.025,1396.35 
		431.362,1396.35 431.362,1381.001 	"/>
	<polygon style="fill-rule:evenodd;clip-rule:evenodd;fill:#BA9E8F;" points="446.025,1381.001 460.688,1381.001 460.688,1396.35 
		446.025,1396.35 446.025,1381.001 	"/>
	<polygon style="fill-rule:evenodd;clip-rule:evenodd;fill:#B0A38F;" points="420.136,1472.715 456.335,1472.715 456.335,1490.584 
		420.136,1490.584 420.136,1472.715 	"/>
	<polygon style="fill-rule:evenodd;clip-rule:evenodd;fill:#C9BAA6;" points="434.44,1515.327 456.335,1515.327 456.335,1533.197 
		434.44,1533.197 434.44,1515.327 	"/>
	<polygon style="fill-rule:evenodd;clip-rule:evenodd;fill:#C9BAA6;" points="406.389,1424.602 430.774,1424.602 430.774,1442.472 
		406.389,1442.472 406.389,1424.602 	"/>
	<polygon style="fill-rule:evenodd;clip-rule:evenodd;fill:#594038;" points="457.347,1380.997 402.908,1380.997 402.908,1370.44 
		457.347,1370.44 457.347,1380.997 	"/>
	<polygon style="fill-rule:evenodd;clip-rule:evenodd;fill:#594038;" points="458.581,1406.911 404.142,1406.911 404.142,1396.354 
		458.581,1396.354 458.581,1406.911 	"/>
	<path style="fill-rule:evenodd;clip-rule:evenodd;fill:#594038;" d="M1577.593,830.293h-367.839v-21.802h69.008l-20.503-12.169
		l261.549-0.69L1577.593,830.293L1577.593,830.293z M1859.79,1625.532v21.112H1693.63H270.134H103.976v-21.112h166.159v-87.977
		h87.978v-369.073H220.887l168.615-110.885h2.394V851.405l-89.131,0.154l128.596-77.038h6.789h41.002h263.086l239.645-143.844
		l239.641,143.844h263.089h41.001h6.789c42.88,25.688,85.735,51.338,128.636,77.038l-89.131-0.154h-0.04v206.191h2.392
		l168.615,110.885h-137.225v369.073h66.866h21.112v87.977H1859.79L1859.79,1625.532z M706.668,795.632l-21.667,12.859h69.01v21.802
		H386.173l57.784-34.661H706.668L706.668,795.632z M1209.755,851.405h341.004v206.191h-341.004V851.405L1209.755,851.405z
		 M1209.755,1078.708h358.188l104.409,68.661H291.412l104.409-68.661h358.19v20.734h455.743V1078.708L1209.755,1078.708z
		 M754.011,1057.596H413.008V851.405h341.004V1057.596L754.011,1057.596z M775.123,783.756l206.761-124.338l206.759,124.336v294.576
		h-413.52V783.756L775.123,783.756z M358.112,1558.666H835.25v20.035h-16.459h-21.112v21.112v25.719H291.246v-66.865H358.112
		L358.112,1558.666z M818.791,1625.532v-25.719h16.459h21.112h251.048h21.112h16.459v25.719H818.791L818.791,1625.532z
		 M1166.091,1625.532v-25.719v-21.112h-21.112h-16.459v-20.035h477.131h66.866v66.865H1166.091L1166.091,1625.532z
		 M856.361,1578.701v-20.035h251.048v20.035H856.361L856.361,1578.701z M379.224,1168.481h1205.317v369.073H379.224V1168.481
		L379.224,1168.481z"/>
	<path style="fill-rule:evenodd;clip-rule:evenodd;fill:#388C12;" d="M576.03,1575.917c-3.801,0-7.487,0.486-11.008,1.399
		c0.052-0.958,0.079-1.921,0.079-2.891c0-29.354-23.792-53.148-53.148-53.148c-24.139,0-44.518,16.097-50.993,38.14
		c-4.41-1.536-9.144-2.376-14.075-2.376c-23.593,0-42.718,19.125-42.718,42.716c0,4.254,0.625,8.358,1.781,12.234
		c-6.584,5.91-10.721,14.484-10.721,24.027c0,3.722,0.665,7.299,1.87,10.626h213.099c5.939-7.435,9.545-16.818,9.545-27.016
		C619.742,1595.486,600.172,1575.917,576.03,1575.917L576.03,1575.917z"/>
	<path style="fill-rule:evenodd;clip-rule:evenodd;fill:#29700A;" d="M511.852,1563.219c4.485,0,8.832,0.573,12.984,1.65
		c-0.06-1.13-0.094-2.265-0.094-3.41c0-12.876,3.884-24.844,10.54-34.798c17.658,8.641,29.819,26.781,29.819,47.764
		c0,0.97-0.027,1.933-0.079,2.891c3.52-0.912,7.207-1.399,11.008-1.399c24.142,0,43.711,19.57,43.711,43.711
		c0,10.197-3.605,19.58-9.545,27.016H471.553c-7.005-8.77-11.259-19.838-11.259-31.866
		C460.293,1586.303,483.377,1563.219,511.852,1563.219L511.852,1563.219z"/>
	<polygon style="fill-rule:evenodd;clip-rule:evenodd;fill:#EDE3D6;" points="571.245,1505.429 700.454,1505.429 700.454,1510.011 
		571.245,1510.011 571.245,1505.429 	"/>
	<path style="fill-rule:evenodd;clip-rule:evenodd;fill:#57B82B;" d="M534.763,1563.219c4.485,0,8.832,0.573,12.984,1.65
		c-0.06-1.13-0.094-2.265-0.094-3.41c0-34.624,28.065-62.689,62.689-62.689c28.474,0,52.51,18.986,60.149,44.987
		c5.2-1.812,10.786-2.803,16.602-2.803c27.826,0,50.386,22.56,50.386,50.386c0,5.016-0.738,9.859-2.101,14.43
		c7.764,6.97,12.645,17.084,12.645,28.339c0,4.391-0.786,8.608-2.207,12.533H494.464c-7.006-8.77-11.259-19.838-11.259-31.866
		C483.205,1586.303,506.289,1563.219,534.763,1563.219L534.763,1563.219z"/>
	<path style="fill-rule:evenodd;clip-rule:evenodd;fill:#75E045;" d="M539.964,1569.198c3.259,0,6.438,0.327,9.516,0.948
		l-0.009,0.667c0,1.018,0.031,2.028,0.085,3.034c-3.697-0.958-7.566-1.467-11.559-1.467c-25.185,0-45.625,20.285-45.891,45.405
		l-0.006-0.723C492.101,1590.627,513.531,1569.198,539.964,1569.198L539.964,1569.198z M559.372,1539.078
		c9.973-17.731,28.961-29.709,50.754-29.709c26.434,0,48.746,17.625,55.839,41.762c4.825-1.681,10.012-2.602,15.411-2.602
		c25.831,0,46.775,20.943,46.775,46.775c0,4.657-0.684,9.152-1.949,13.397c7.207,6.469,11.739,15.858,11.739,26.307
		c0,4.078-0.729,7.99-2.049,11.635h-10.014c1.266-3.496,1.966-7.249,1.966-11.157c0-10.021-4.345-19.023-11.257-25.227
		c1.214-4.071,1.868-8.381,1.868-12.847c0-24.771-20.083-44.854-44.852-44.854c-5.177,0-10.152,0.883-14.778,2.496
		c-6.802-23.146-28.198-40.047-53.547-40.047C586.247,1515.007,569.443,1524.533,559.372,1539.078L559.372,1539.078z"/>
	<path style="fill-rule:evenodd;clip-rule:evenodd;fill:#388C12;" d="M1693.977,1205.154c14.314,0,27.664,4.121,38.936,11.234
		c10.777-6.265,23.302-9.858,36.666-9.858c30.272,0,56.245,18.412,67.329,44.647c32.996,8.766,57.313,38.838,57.313,74.592
		c0,22.479-9.615,42.714-24.952,56.818c5.555,12.122,8.653,25.606,8.653,39.813c0,52.863-42.855,95.718-95.718,95.718
		c-29.775,0-56.373-13.599-73.929-34.925c-6.717,1.525-13.707,2.334-20.885,2.334c-51.893,0-93.963-42.069-93.963-93.967
		c0-30.943,14.961-58.389,38.04-75.511c-6.696-11.035-10.549-23.986-10.549-37.837
		C1620.918,1237.864,1653.628,1205.154,1693.977,1205.154L1693.977,1205.154z"/>
	<path style="fill-rule:evenodd;clip-rule:evenodd;fill:#57B82B;" d="M1691.379,1218.824c13.518,0,26.122,3.89,36.766,10.607
		c10.177-5.917,22.003-9.308,34.622-9.308c28.584,0,53.107,17.386,63.576,42.157c31.156,8.277,54.114,36.673,54.114,70.432
		c0,16.168-5.266,31.105-14.177,43.192c5.95-10.555,9.348-22.743,9.348-35.725c0-33.759-22.961-62.154-54.117-70.432
		c-10.467-24.771-34.991-42.157-63.574-42.157c-12.62,0-24.447,3.391-34.624,9.308c-10.642-6.716-23.248-10.607-36.764-10.607
		c-22.699,0-42.839,10.964-55.409,27.886C1642.942,1233.086,1665.494,1218.824,1691.379,1218.824L1691.379,1218.824z
		 M1857.662,1388.085c4.765,10.995,7.404,23.125,7.404,35.87c0,19.661-6.282,37.853-16.941,52.687
		c7.702-13.3,12.111-28.747,12.111-45.222c0-13.412-2.924-26.145-8.171-37.591
		C1854.036,1392.019,1855.902,1390.101,1857.662,1388.085L1857.662,1388.085z"/>
	<polygon style="fill-rule:evenodd;clip-rule:evenodd;fill:#594038;" points="1741.936,1417.146 1757.908,1417.146 
		1765.445,1646.643 1734.398,1646.643 1741.936,1417.146 	"/>
	<polygon style="fill-rule:evenodd;clip-rule:evenodd;fill:#594038;" points="1744.454,1433.422 1753.82,1420.579 
		1655.766,1374.068 1744.454,1433.422 	"/>
	<polygon style="fill-rule:evenodd;clip-rule:evenodd;fill:#594038;" points="1757.908,1417.146 1767.582,1413.773 
		1750.836,1345.095 1757.908,1417.146 	"/>
	<polygon style="fill-rule:evenodd;clip-rule:evenodd;fill:#594038;" points="1756.113,1430.658 1744.826,1418.779 
		1785.437,1391.712 1811.555,1315.193 1793.685,1399.5 1756.113,1430.658 	"/>
</g>
</svg>
